<?xml version="1.0" encoding="UTF-8" standalone="no"?>
<svg
   width="16"
   height="16"
   fill="currentColor"
   class="bi bi-clipboard-data-fill"
   viewBox="0 0 16 16"
   version="1.1"
   id="svg2"
   sodipodi:docname="commits.svg"
   inkscape:version="1.3.2 (091e20ef0f, 2023-11-25)"
   xmlns:inkscape="http://www.inkscape.org/namespaces/inkscape"
   xmlns:sodipodi="http://sodipodi.sourceforge.net/DTD/sodipodi-0.dtd"
   xmlns="http://www.w3.org/2000/svg"
   xmlns:svg="http://www.w3.org/2000/svg">
  <defs
     id="defs2" />
  <sodipodi:namedview
     id="namedview2"
     pagecolor="#ffffff"
     bordercolor="#000000"
     borderopacity="0.25"
     inkscape:showpageshadow="2"
     inkscape:pageopacity="0.0"
     inkscape:pagecheckerboard="0"
     inkscape:deskcolor="#d1d1d1"
     inkscape:zoom="36.6875"
     inkscape:cx="5.1243612"
     inkscape:cy="11.55707"
     inkscape:window-width="3440"
     inkscape:window-height="1368"
     inkscape:window-x="0"
     inkscape:window-y="0"
     inkscape:window-maximized="1"
     inkscape:current-layer="svg2" />
  <path
     d="M 6.8376734,1.8009248 A 1.1623266,1.1623266 0 0 0 5.6753468,2.9632514 V 3.7381358 A 1.1623266,1.1623266 0 0 0 6.8376734,4.9004624 H 9.1623266 A 1.1623266,1.1623266 0 0 0 10.324653,3.7381358 V 2.9632514 A 1.1623266,1.1623266 0 0 0 9.1623266,1.8009248 Z M 9.1623266,2.5758092 A 0.3874422,0.3874422 0 0 1 9.5497688,2.9632514 V 3.7381358 A 0.3874422,0.3874422 0 0 1 9.1623266,4.125578 H 6.8376734 A 0.3874422,0.3874422 0 0 1 6.4502312,3.7381358 V 2.9632514 A 0.3874422,0.3874422 0 0 1 6.8376734,2.5758092 Z"
     id="path1"
     style="stroke-width:0.774884" />
  <path
     d="M 4.9004624,2.9632514 H 4.125578 A 1.5497688,1.5497688 0 0 0 2.5758092,4.5130202 v 8.1362858 a 1.5497688,1.5497688 0 0 0 1.5497688,1.549769 h 7.748844 a 1.5497688,1.5497688 0 0 0 1.549769,-1.549769 V 4.5130202 A 1.5497688,1.5497688 0 0 0 11.874422,2.9632514 H 11.099538 V 3.7381358 A 1.937211,1.937211 0 0 1 9.1623266,5.6753468 H 6.8376734 A 1.937211,1.937211 0 0 1 4.9004624,3.7381358 Z M 9.5497688,8 a 0.7748846,0.7748846 0 1 1 1.5497692,0 v 3.874422 a 0.7748846,0.7748846 0 1 1 -1.5497692,0 z m -4.6493064,3.099538 a 0.7748844,0.7748844 0 1 1 1.5497688,0 v 0.774884 a 0.7748844,0.7748844 0 1 1 -1.5497688,0 z M 8,8.7748844 a 0.7748844,0.7748844 0 0 1 0.7748844,0.7748844 v 2.3246532 a 0.7748844,0.7748844 0 1 1 -1.5497688,0 V 9.5497688 A 0.7748844,0.7748844 0 0 1 8,8.7748844"
     id="path2"
     style="stroke-width:0.774884" />
</svg>
