<?xml version="1.0" encoding="UTF-8" standalone="no"?>
<!-- Uploaded to: SVG Repo, www.svgrepo.com, Generator: SVG Repo Mixer Tools -->

<svg
   width="800px"
   height="800px"
   viewBox="0 0 24 24"
   fill="none"
   version="1.1"
   id="svg3"
   sodipodi:docname="instagram.svg"
   inkscape:version="1.3.2 (091e20ef0f, 2023-11-25)"
   xmlns:inkscape="http://www.inkscape.org/namespaces/inkscape"
   xmlns:sodipodi="http://sodipodi.sourceforge.net/DTD/sodipodi-0.dtd"
   xmlns="http://www.w3.org/2000/svg"
   xmlns:svg="http://www.w3.org/2000/svg">
  <defs
     id="defs3" />
  <sodipodi:namedview
     id="namedview3"
     pagecolor="#ffffff"
     bordercolor="#000000"
     borderopacity="0.25"
     inkscape:showpageshadow="2"
     inkscape:pageopacity="0.0"
     inkscape:pagecheckerboard="0"
     inkscape:deskcolor="#d1d1d1"
     inkscape:zoom="1.4675"
     inkscape:cx="400"
     inkscape:cy="400"
     inkscape:window-width="3440"
     inkscape:window-height="1368"
     inkscape:window-x="0"
     inkscape:window-y="0"
     inkscape:window-maximized="1"
     inkscape:current-layer="svg3" />
  <path
     fill-rule="evenodd"
     clip-rule="evenodd"
     d="M12 18C15.3137 18 18 15.3137 18 12C18 8.68629 15.3137 6 12 6C8.68629 6 6 8.68629 6 12C6 15.3137 8.68629 18 12 18ZM12 16C14.2091 16 16 14.2091 16 12C16 9.79086 14.2091 8 12 8C9.79086 8 8 9.79086 8 12C8 14.2091 9.79086 16 12 16Z"
     fill="#0F0F0F"
     id="path1" />
  <path
     d="M18 5C17.4477 5 17 5.44772 17 6C17 6.55228 17.4477 7 18 7C18.5523 7 19 6.55228 19 6C19 5.44772 18.5523 5 18 5Z"
     fill="#0F0F0F"
     id="path2" />
  <path
     fill-rule="evenodd"
     clip-rule="evenodd"
     d="M 0.83085437,3.6615622 C 0.12486691,5.047142 0.12486691,6.8609714 0.12486691,10.488619 v 3.022762 c 0,3.627637 0,5.441509 0.70598746,6.827014 0.62100473,1.21882 1.61190893,2.209746 2.83070783,2.830707 1.3855798,0.706031 3.1994092,0.706031 6.8270568,0.706031 h 3.022762 c 3.627637,0 5.441509,0 6.827014,-0.706031 1.21882,-0.620961 2.209746,-1.611887 2.830707,-2.830707 0.706031,-1.385505 0.706031,-3.199377 0.706031,-6.827014 v -3.022762 c 0,-3.6276476 0,-5.441477 -0.706031,-6.8270568 C 22.548141,2.4427633 21.557215,1.4518591 20.338395,0.83085437 18.95289,0.12486691 17.139018,0.12486691 13.511381,0.12486691 h -3.022762 c -3.6276476,0 -5.441477,0 -6.8270568,0.70598746 C 2.4427633,1.4518591 1.4518591,2.4427633 0.83085437,3.6615622 Z M 13.511381,2.283982 h -3.022762 c -1.8494544,0 -3.1066963,0.00168 -4.0784816,0.081075 C 5.4635381,2.4423963 4.9794645,2.5825768 4.6417789,2.7546367 3.8292499,3.168647 3.168647,3.8292499 2.7546367,4.6417789 2.5825768,4.9794645 2.4423963,5.4635381 2.3650568,6.4101374 2.2856661,7.3819227 2.283982,8.6391646 2.283982,10.488619 v 3.022762 c 0,1.849498 0.00168,3.106642 0.081075,4.07846 0.077339,0.946664 0.21752,1.430738 0.3895799,1.768423 0.4140103,0.812475 1.0746132,1.473057 1.8871422,1.887067 0.3376856,0.172081 0.8217592,0.312316 1.7683585,0.389612 0.9717853,0.07935 2.2290272,0.08107 4.0784814,0.08107 h 3.022762 c 1.849498,0 3.106642,-0.0017 4.07846,-0.08107 0.946664,-0.0773 1.430738,-0.217531 1.768423,-0.389612 0.812475,-0.41401 1.473057,-1.074592 1.887067,-1.887067 0.172081,-0.337685 0.312316,-0.821759 0.389612,-1.768423 0.07935,-0.971818 0.08107,-2.228962 0.08107,-4.07846 v -3.022762 c 0,-1.8494544 -0.0017,-3.1066963 -0.08107,-4.0784816 C 21.557647,5.4635381 21.417412,4.9794645 21.245331,4.6417789 20.831321,3.8292499 20.170739,3.168647 19.358264,2.7546367 19.020579,2.5825768 18.536505,2.4423963 17.589841,2.3650568 16.618023,2.2856661 15.360879,2.283982 13.511381,2.283982 Z"
     fill="#0f0f0f"
     id="path3"
     style="stroke-width:1.07956" />
</svg>
