<?xml version="1.0" encoding="UTF-8" standalone="no"?>
<svg
   width="16"
   height="16"
   fill="currentColor"
   class="bi bi-clipboard2-check-fill"
   viewBox="0 0 16 16"
   version="1.1"
   id="svg2"
   sodipodi:docname="prs.svg"
   inkscape:version="1.3.2 (091e20ef0f, 2023-11-25)"
   xmlns:inkscape="http://www.inkscape.org/namespaces/inkscape"
   xmlns:sodipodi="http://sodipodi.sourceforge.net/DTD/sodipodi-0.dtd"
   xmlns="http://www.w3.org/2000/svg"
   xmlns:svg="http://www.w3.org/2000/svg">
  <defs
     id="defs2" />
  <sodipodi:namedview
     id="namedview2"
     pagecolor="#ffffff"
     bordercolor="#000000"
     borderopacity="0.25"
     inkscape:showpageshadow="2"
     inkscape:pageopacity="0.0"
     inkscape:pagecheckerboard="0"
     inkscape:deskcolor="#d1d1d1"
     inkscape:zoom="36.6875"
     inkscape:cx="1.6626917"
     inkscape:cy="9.2129472"
     inkscape:window-width="3440"
     inkscape:window-height="1368"
     inkscape:window-x="0"
     inkscape:window-y="0"
     inkscape:window-maximized="1"
     inkscape:current-layer="svg2" />
  <path
     d="M 9.9269505,1.8184193 A 0.46417777,0.38123869 0 0 0 9.4627725,1.4371806 H 6.6777065 A 0.46417777,0.38123869 0 0 0 6.2135285,1.8184193 0.46417777,0.38123869 0 0 1 5.7493505,2.199658 0.46417777,0.38123869 0 0 0 5.2851735,2.5808967 v 0.3812386 a 0.46417777,0.38123869 0 0 0 0.464177,0.3812388 H 10.391128 A 0.46417777,0.38123869 0 0 0 10.855305,2.9621353 V 2.5808967 A 0.46417777,0.38123869 0 0 0 10.391128,2.199658 0.46417777,0.38123869 0 0 1 9.9269505,1.8184193"
     id="path1-9"
     style="stroke-width:0.841338" />
  <path
     d="M 4.3596226,2.3268739 H 3.803503 A 1.4259476,1.1447722 0 0 0 2.3775554,3.4716461 v 9.1581779 a 1.4259476,1.1447722 0 0 0 1.4259476,1.144772 h 8.555685 a 1.4259476,1.1447722 0 0 0 1.425948,-1.144772 V 3.4716461 A 1.4259476,1.1447722 0 0 0 12.359188,2.3268739 h -0.556119 q 0.07985,0.1801109 0.0808,0.3815908 V 3.0900554 A 1.4259476,1.1447722 0 0 1 10.457925,4.2348275 H 5.7047665 A 1.4259476,1.1447722 0 0 1 4.2788189,3.0900554 V 2.7084647 Q 4.2797695,2.5069848 4.3596226,2.3268739 M 10.794448,7.5577195 7.9425536,9.8472639 a 0.47531587,0.38159072 0 0 1 -0.6730473,0 L 5.8435587,8.7024919 A 0.47591641,0.38207284 0 1 1 6.516606,8.1621592 L 7.60603,9.0375279 10.121401,7.017387 a 0.47591629,0.38207274 0 0 1 0.673047,0.5403325"
     id="path2"
     style="stroke-width:0.851766" />
</svg>
