<?xml version="1.0" encoding="UTF-8" standalone="no"?>
<svg
   height="20"
   width="20"
   version="1.1"
   id="svg1"
   sodipodi:docname="repositories.svg"
   inkscape:version="1.3.2 (091e20ef0f, 2023-11-25)"
   xmlns:inkscape="http://www.inkscape.org/namespaces/inkscape"
   xmlns:sodipodi="http://sodipodi.sourceforge.net/DTD/sodipodi-0.dtd"
   xmlns="http://www.w3.org/2000/svg"
   xmlns:svg="http://www.w3.org/2000/svg">
  <defs
     id="defs1" />
  <sodipodi:namedview
     id="namedview1"
     pagecolor="#111111"
     bordercolor="#000000"
     borderopacity="0.25"
     inkscape:showpageshadow="2"
     inkscape:pageopacity="0.0"
     inkscape:pagecheckerboard="0"
     inkscape:deskcolor="#d1d1d1"
     inkscape:zoom="25.94198"
     inkscape:cx="2.274306"
     inkscape:cy="7.4396788"
     inkscape:window-width="2086"
     inkscape:window-height="1298"
     inkscape:window-x="26"
     inkscape:window-y="23"
     inkscape:window-maximized="0"
     inkscape:current-layer="svg1" />
  <path
     id="path1"
     style="fill:#ffffff;stroke-width:0.0198665"
     d="m 1.7266843,2.0601393 c -0.6706039,0 -1.34063535,0.6012563 -1.34063535,1.2039066 V 17.727341 c 0,0.602649 0.67003145,1.206641 1.34063535,1.206641 h 2.683829 l 0.07589,1.272199 2.0109531,-1.808595 2.0135114,1.808595 -0.07589,-1.272199 h 6.7057362 c 0.670604,0 1.340635,-0.603992 1.340635,-1.206641 V 3.2640459 c 0,-0.6026503 -0.670031,-1.2039066 -1.340635,-1.2039066 z M 1.890426,4.3749233 H 7.2310613 V 7.7204668 H 1.890426 Z m 0,5.0927455 H 7.2310613 V 12.813213 H 1.890426 Z M 1.7266843,15.316792 H 15.140714 v 1.808595 c 0,0.301323 -0.314059,0.601954 -0.670318,0.601954 H 8.4349778 V 16.523434 H 4.4105133 v 1.203907 H 2.3970019 c -0.3562593,0 -0.6703176,-0.319464 -0.6703176,-0.601954 z"
     sodipodi:nodetypes="sssscccccsssssccccccccccccssccccssc" />
</svg>
