<svg preserveAspectRatio="none" width="1300" height="300" xmlns:xlink="http://www.w3.org/1999/xlink" xmlns="http://www.w3.org/2000/svg"><defs><mask maskUnits="userSpaceOnUse" id="m"><g transform="matrix(.7723 0 0 .87292 0 59.952)"><path d="M-1.003-1.078h1302v413.127h-1302Z" fill="#fff" stroke-width="1.009"/><use xlink:href="#a" transform="scale(1 1.0183)"/></g></mask><mask maskUnits="userSpaceOnUse" id="l"><g transform="matrix(.7723 0 0 .87292 0 59.952)"><path d="M-1.003-1.078h1302v413.127h-1302Z" fill="#fff" stroke-width="1.009"/><use xlink:href="#a" transform="scale(1 1.0183)"/></g></mask><mask maskUnits="userSpaceOnUse" id="k"><g transform="matrix(.7723 0 0 .87292 0 59.952)"><path d="M-1.003-1.078h1302v413.127h-1302Z" fill="#fff" stroke-width="1.009"/><use xlink:href="#a" transform="scale(1 1.0183)"/></g></mask><mask maskUnits="userSpaceOnUse" id="j"><g transform="matrix(.7723 0 0 .87292 0 59.952)"><path d="M-1.003-1.078h1302v413.127h-1302Z" fill="#fff" stroke-width="1.009"/><use xlink:href="#a" transform="scale(1 1.0183)"/></g></mask><mask maskUnits="userSpaceOnUse" id="i"><g transform="matrix(.7723 0 0 .87292 0 59.952)"><path d="M-1.003-1.078h1302v413.127h-1302Z" fill="#fff" stroke-width="1.009"/><use xlink:href="#a" transform="scale(1 1.0183)"/></g></mask><mask maskUnits="userSpaceOnUse" id="h"><g transform="matrix(.7723 0 0 .87292 0 59.952)"><path d="M-1.003-1.078h1302v413.127h-1302Z" fill="#fff" stroke-width="1.009"/><use xlink:href="#a" transform="scale(1 1.0183)"/></g></mask><mask maskUnits="userSpaceOnUse" id="g"><g transform="matrix(.7723 0 0 .87292 0 59.952)"><path d="M-1.003-1.078h1302v413.127h-1302Z" fill="#fff" stroke-width="1.009"/><use xlink:href="#a" transform="scale(1 1.0183)"/></g></mask><mask maskUnits="userSpaceOnUse" id="f"><g transform="matrix(.7723 0 0 .87292 0 59.952)"><path d="M-1.003-1.078h1302v413.127h-1302Z" fill="#fff" stroke-width="1.009"/><use xlink:href="#a" transform="scale(1 1.0183)"/></g></mask><mask maskUnits="userSpaceOnUse" id="e"><g transform="matrix(.7723 0 0 .87292 0 59.952)"><path d="M-1.003-1.078h1302v413.127h-1302Z" fill="#fff" stroke-width="1.009"/><use xlink:href="#a" transform="scale(1 1.0183)"/></g></mask><mask maskUnits="userSpaceOnUse" id="d"><g transform="matrix(.7723 0 0 .87292 0 59.952)"><path d="M-1.003-1.078h1302v413.127h-1302Z" fill="#fff" stroke-width="1.009"/><use xlink:href="#a" transform="scale(1 1.0183)"/></g></mask><mask maskUnits="userSpaceOnUse" id="c"><g transform="matrix(.7723 0 0 .87292 0 59.952)"><path d="M-1.003-1.078h1302v413.127h-1302Z" fill="#fff" stroke-width="1.009"/><use xlink:href="#a" transform="scale(1 1.0183)"/></g></mask><mask maskUnits="userSpaceOnUse" id="b"><g transform="scale(1 .98204)"><path d="M-1.003-1.078h1302v413.127h-1302Z" fill="#fff" stroke-width="1.009"/><use xlink:href="#a" transform="scale(1 1.0183)"/></g></mask></defs><defs><path fill="#fff" d="M0 0h1440v560H0Z" id="a"/></defs><path mask="url(#b)" d="M-.004-.06v294.613h564.766v-2.004l10.968-10.772h305.198l30.988-30.433h148.453l23.32-39.667s160.559 1.307 216.307.708V-.06h-1300z" transform="scale(1 1.0183)" fill="#501616"/><path d="M-12.5 287.5h400" stroke="#3a7cc3" stroke-width="4.17" transform="matrix(1.29483 0 0 1.14558 0 -68.68)" mask="url(#c)" fill="none"/><path d="M381.25 287.5a6.25 6.25 0 1 0 12.5 0 6.25 6.25 0 1 0-12.5 0z" fill="#3a7cc3" transform="matrix(1.29483 0 0 1.14558 0 -68.68)" mask="url(#d)"/><path d="m694.087 250.312 30.51-28.381M431.28 262.462l29.593-24.924h88.777m-59.186 24.924 29.593 24.925m230.977-36.716 41.345-43.29m-213.136 80.006h59.186m-88.779 0 27.544-23.2 2.049-1.725 30.457-23.896m-208.014 23.896 29.593-24.924 29.593-24.925h88.778m-562.264 49.85h532.671l29.593 24.924h29.593l29.593-24.925 15.654-11.949 163.108.241" stroke="#d13" stroke-width="4.17" transform="matrix(1.29483 0 0 1.14558 0 -68.68)" mask="url(#e)" fill="none"/><path d="m262.5 212.5 25 25h50m-100-25 25 25m-75 0h25m-225 0h200l25-25h75" stroke="#3a7cc3" stroke-width="4.17" transform="matrix(1.29483 0 0 1.14558 0 -68.68)" mask="url(#f)" fill="none"/><path d="M281.25 212.5a6.25 6.25 0 1 0 12.5 0 6.25 6.25 0 1 0-12.5 0zm50 25a6.25 6.25 0 1 0 12.5 0 6.25 6.25 0 1 0-12.5 0zm-75 0a6.25 6.25 0 1 0 12.5 0 6.25 6.25 0 1 0-12.5 0zm-50 0a6.25 6.25 0 1 0 12.5 0 6.25 6.25 0 1 0-12.5 0z" fill="#3a7cc3" transform="matrix(1.29483 0 0 1.14558 0 -68.68)" mask="url(#g)"/><path d="m512.5 187.5 25 25h125m-175-25 25-25h150m-675 50h200l25-25h400" stroke="#3a7cc3" stroke-width="4.17" transform="matrix(1.29483 0 0 1.14558 0 -68.68)" mask="url(#h)" fill="none"/><path d="M606.25 187.5a6.25 6.25 0 1 0 12.5 0 6.25 6.25 0 1 0-12.5 0zm50 25a6.25 6.25 0 1 0 12.5 0 6.25 6.25 0 1 0-12.5 0zm0-50a6.25 6.25 0 1 0 12.5 0 6.25 6.25 0 1 0-12.5 0z" fill="#3a7cc3" transform="matrix(1.29483 0 0 1.14558 0 -68.68)" mask="url(#i)"/><path d="m137.5 187.5 25-25h25m-125 25 25-25h50m200 0 25-25h50m-175 25 25-25h75l25-25h75m-225 50 25-25m-250 50h200l25-25h250" stroke="#d13" stroke-width="4.17" transform="matrix(1.29483 0 0 1.14558 0 -68.68)" mask="url(#j)" fill="none"/><path d="M456.25 162.5a6.25 6.25 0 1 0 12.5 0 6.25 6.25 0 0 0-12.5 0zm-275 0a6.25 6.25 0 1 0 12.5 0 6.25 6.25 0 0 0-12.5 0zm-50 0a6.25 6.25 0 1 0 12.5 0 6.25 6.25 0 0 0-12.5 0zm275-25a6.25 6.25 0 1 0 12.5 0 6.25 6.25 0 0 0-12.5 0zm25-25a6.25 6.25 0 1 0 12.5 0 6.25 6.25 0 0 0-12.5 0zm-200 25a6.25 6.25 0 1 0 12.5 0 6.25 6.25 0 0 0-12.5 0z" fill="#d13" transform="matrix(1.29483 0 0 1.14558 0 -68.68)" mask="url(#k)"/><path d="m262.5 112.5 25-25h100m-275 50 25-25 25-25m25 25 25-25h25m-250 75h25l25-25h100l25-25h150" stroke="#3a7cc3" stroke-width="4.17" transform="matrix(1.29483 0 0 1.14558 0 -68.68)" mask="url(#l)" fill="#501616"/><path d="M306.25 112.5a6.25 6.25 0 1 0 12.5 0 6.25 6.25 0 1 0-12.5 0zm75-25a6.25 6.25 0 1 0 12.5 0 6.25 6.25 0 1 0-12.5 0zm-225 0a6.25 6.25 0 1 0 12.5 0 6.25 6.25 0 1 0-12.5 0zm75 0a6.25 6.25 0 1 0 12.5 0 6.25 6.25 0 1 0-12.5 0z" fill="#3a7cc3" transform="matrix(1.29483 0 0 1.14558 0 -68.68)" mask="url(#m)"/><ellipse cx="829.656" cy="259.979" rx="7.348" ry="7.39" fill="#d13"/><ellipse cx="1024.247" cy="219.07" rx="7.348" ry="7.39" fill="#d13"/><ellipse cx="1027.031" cy="167.554" rx="7.348" ry="7.39" fill="#d13"/><ellipse cx="936.017" cy="185.618" rx="7.348" ry="7.39" fill="#d13"/><ellipse cx="790.286" cy="203.625" rx="7.348" ry="7.39" fill="#d13"/><ellipse cx="673.576" cy="260.498" rx="7.348" ry="7.39" fill="#d13"/><ellipse cx="713.972" cy="202.935" rx="7.348" ry="7.39" fill="#d13"/></svg>