<svg preserveAspectRatio="none" width="1300.003" height="300" xmlns="http://www.w3.org/2000/svg"><path fill="#1e3266" d="M0 204.085h1300.003V-2H0Z"/><path d="M614.193 45.303c-16.12-.56-33.364 5.375-51.732 17.804-65.24-6.554-101.353 20.818-108.334 82.118-2.594-38.279-24.26-56.2-65-53.762-40.926-29.405-77.038-24.881-108.334 13.572-22.87-46.37-58.982-58.811-108.334-37.322-44.61-25.945-80.721-17.959-108.334 23.955-36.207-6.695-57.874 6.966-65 40.986v161.91l2.166-7.43c23.274-18.842 44.94-17.33 65 4.538 7.541-33.63 29.208-46.902 65-39.817 27.65-14.736 49.316-9.115 65 16.864 24.49-44.85 60.601-55.772 108.334-32.768 43.7-26.798 79.812-19.67 108.334 21.385 43.586-26.9 79.696-19.874 108.332 21.078 9.925-31.396 31.591-42.432 65-33.107 14.589-27.008 36.258-33.658 65.002-19.95 34.901-7.923 56.568 4.512 65 37.305 44.904-25.667 81.014-17.406 108.332 24.785 25.958-16.326 47.626-12.292 65.002 12.098 5.44-35.603 27.107-50.85 65-45.738 13.963-27.59 35.63-34.827 65-21.707 33.03-9.681 54.696.992 65 32.021 45.807-24.82 81.919-15.711 108.334 27.322 15.174-52.968 50.822-72.527 106.812-58.896V103.703c-.223.063-.42.08-.644.145-17.02-24.718-38.687-29.08-65-13.088-45.921-24.718-82.033-15.503-108.334 27.644-20.945-48.185-57.056-62.439-108.334-42.76-47.107-23.597-83.219-13.266-108.334 30.995-18.41-23.417-40.077-26.476-65-9.178-34.378-8.415-56.044 3.53-65 35.83-17.087-51.799-53.198-69.671-108.334-53.617-17.008-22.193-35.874-33.651-56.6-34.371Z" fill="#182f5d"/><path d="M546.516 120.537c-8.514.446-17.611 3.755-27.291 9.926-29.864-12.65-51.53-4.946-65 23.113-17.243-24.508-38.91-28.662-65-12.46-52.608-18.43-88.72-2.928-108.334 46.501-40.595-29.717-76.707-25.506-108.334 12.637-22.877-46.359-58.988-58.79-108.334-37.295-17.64-24.147-39.307-27.934-65-11.36v142.215L1.2 287.03c23.274-18.842 44.94-17.328 65 4.54 7.541-33.63 29.208-46.903 65-39.817 27.65-14.737 49.316-9.115 65 16.863 24.49-44.849 60.601-55.771 108.334-32.767 43.7-26.799 79.81-19.672 108.332 21.382 43.586-26.9 79.698-19.872 108.334 21.08 9.925-31.396 31.591-42.432 65-33.107 14.59-27.008 36.256-33.657 65-19.95 34.902-7.922 56.568 4.513 65 37.306 44.904-25.668 81.016-17.407 108.334 24.785 25.958-16.326 47.625-12.295 65 12.095 5.44-35.603 27.108-50.848 65-45.736 13.963-27.59 35.63-34.826 65-21.707 33.03-9.68 54.698.993 65.002 32.022 45.807-24.82 81.917-15.714 108.332 27.32 15.202-53.064 50.911-72.666 107.076-58.89v-52.69c-.245.137-.473.211-.718.351-22.19-47.009-58.303-60.085-108.334-39.23-55.106-16.083-91.218 1.76-108.334 53.531-14.222-27.347-35.889-34.34-65-20.976-21.234-47.903-57.345-61.879-108.334-41.928-29.365-13.12-51.031-5.885-65 21.705-18.562-23.276-40.228-26.194-65-8.754-40.204-2.935-61.87 14.487-65 52.262-13.012-28.49-34.68-36.62-65-24.389-10.966-30.412-32.633-40.467-65-30.17-10.95-15.158-23.52-22.366-37.71-21.623z" fill="#25467d"/><path d="M1057.312 172.734c-24.146.624-44.35 14.501-60.611 41.63-29.533-40.11-65.645-46.293-108.334-18.55-34.312-8.476-55.979 3.406-65 35.65-27.523-14.855-49.19-9.352-65 16.508-20.535-48.564-56.647-63.203-108.334-43.914-25.555-16.704-47.222-13.052-65 10.96-27.493-14.89-49.16-9.419-65 16.413-44.276-21.383-81.78-10.183-106.084 26.892 41.566-23.682 80.734-18.175 108.373 21.351 9.925-31.396 32.024-42.623 65.433-33.298 14.589-27.008 35.679-33.19 64.423-19.482 34.902-7.923 56.26 4.524 64.691 37.317 44.905-25.668 81.204-17.97 108.522 24.222 25.958-16.326 47.77-12.216 65.146 12.174 5.44-35.603 27.093-50.372 64.986-45.26 13.963-27.59 35.826-34.803 65.197-21.684 33.03-9.681 54.539.346 64.843 31.374 45.807-24.82 81.946-15.39 108.362 27.643 12.91-45.067 40.58-66.154 83.037-63.01-26.177-39.885-62.436-48.69-106.927-24.61-14.878-26.736-36.545-33.115-65-19.137-17.327-9.167-33.235-13.564-47.723-13.19zm-920.68 4.42c-8.644-.044-18.066 2.774-28.267 8.455C46.964 175.442 10.852 199.204.03 256.896l.425 37.182.898-.773c27.165-17.063 45.85-21.964 65.91-.096 7.542-33.63 29.312-47.252 65.104-40.166 27.65-14.737 49.465-8.981 65.15 16.997 22.906-41.95 54.773-54.752 98.015-37.337-11.052-18.275-30.05-24.604-57.168-18.729-17.147-24.61-38.814-28.86-65-12.75-10.081-15.975-22.326-23.997-36.733-24.07zm1164.34 37.056c-7.089 2.825-14.14 8.146-20.367 15.64 6.36.734 13.379 2.346 20.367 4.105z" fill="#356cb1"/></svg>