<svg preserveAspectRatio="none" width="1300" height="300" xmlns="http://www.w3.org/2000/svg"><circle cx="-12.774" cy="585.733" fill="#8b9ad9" transform="matrix(-.90278 0 0 -1 0 560)" r="4.174" mask="url(#a)"/><circle cx="-12.774" cy="585.733" fill="#8b9ad9" transform="matrix(-.90278 0 0 -1 0 560)" r="4.174" mask="url(#b)"/><path fill="#0d2045" d="M-.003 299.975h1300v-300h-1300z"/><path d="m1040.388 47.528-92.153 46.818m92.153-46.818L1010.436-66.63M467.392 87.35l29.25 95.673m-29.25-95.673 98.544-31.916M467.392 87.35l-3.21-116.703m3.21 116.703L356.33 47.327M467.392 87.35 368.14-31.841m-10.71 351.854L337.465 171.72m19.965 148.294-130.689-145.43m1056.762-99.405-12.925-108.923m12.925 108.923-123.626-144.73m110.7 35.807-110.7-35.806m110.7 35.806-230.19 81.273m230.19-81.273-260.14-32.884m260.14 32.884L932.702-66.387m337.877 32.642L948.235 94.345M1159.877-69.55l-149.44 2.922m0 0-77.736.242m77.735-.242L948.235 94.346m62.201-160.975L807.032-37.218m203.404-29.411L802.796 47.453m145.439 46.893L932.7-66.387m0 0-125.669 29.17m125.67-29.17 107.686 113.915M932.7-66.387 802.796 47.453m129.905-113.84 227.176-3.164M802.797 47.453l4.235-84.67m-4.236 84.67-93.17 37.35m93.17-37.35L692.118-40.115m110.678 87.567 145.439 46.894M807.032-37.218l-114.914-2.897m-10.1 239.034 27.608-114.115M682.02 198.919l-106.074 26.907m106.074-26.907L565.936 55.434M682.02 198.919 802.796 47.452M682.02 198.92l-185.376-15.896m185.376 15.896 10.099-239.034m0 0 17.508 124.919M692.118-40.115l-130.945-21.78m130.945 21.78L565.936 55.434m10.01 170.392-79.303-42.803m79.302 42.803L565.936 55.434m10.01 170.392L467.391 87.35m98.544-31.916-4.763-117.33m0 0-96.991 32.543m96.991-32.543L467.393 87.35m93.78-149.246L368.14-31.84m193.033-30.055 148.453 146.7m-212.983 98.22 69.293-127.59m-69.293 127.59-159.178-11.305M464.182-29.353l-96.042-2.488m96.042 2.488 101.754 84.787M337.465 171.719l-110.724 2.864m110.724-2.864L356.33 47.327m0 0 11.81-79.168m-11.81 79.168L265.059 65.01m91.27-17.682 107.853-76.68M356.33 47.327 235.929-70.394m132.21 38.553-103.08 96.85M226.74 174.583l-79.317 30.054m79.317-30.054L265.06 65.009m-29.13-135.404-92.123 38.003m92.123-38.002 29.13 135.403m-29.13-135.404 132.21 38.554M147.425 204.637l-1.666-143.301m0 0-1.952-93.728m1.952 93.728 119.3 3.673M86.692 178.922l59.067-117.586" stroke="#10257d" stroke-width="1.19" clip-path="url(#c)" transform="translate(-67.97 .009)"/><path d="m1040.388 47.528-92.153 46.818m92.153-46.818L1010.436-66.63M467.392 87.35l29.25 95.673m-29.25-95.673 98.544-31.916M467.392 87.35l-3.21-116.703m3.21 116.703L356.33 47.327M467.392 87.35 368.14-31.841m-10.71 351.854L337.465 171.72m19.965 148.294-130.689-145.43M22.855 353.524l-3.4-174.533m3.4 174.533 124.569-148.887m1136.08-129.46-12.926-108.922m12.925 108.923-123.626-144.73m110.7 35.807-110.7-35.806m110.7 35.806-230.19 81.273m230.19-81.273-260.14-32.884m260.14 32.884L932.702-66.387m337.877 32.642L948.235 94.345M1159.877-69.55l-149.44 2.922m0 0-77.736.242m77.735-.242L948.235 94.346m62.201-160.975L807.032-37.218m203.404-29.411L802.796 47.453m145.439 46.893L932.7-66.387m0 0-125.669 29.17m125.67-29.17 107.686 113.915M932.7-66.387 802.796 47.453m129.905-113.84 227.176-3.164M802.797 47.453l4.235-84.67m-4.236 84.67-93.17 37.35m93.17-37.35L692.118-40.115m110.678 87.567 145.439 46.894M807.032-37.218l-114.914-2.897m-10.1 239.034 27.608-114.115M682.02 198.919l-106.074 26.907m106.074-26.907L565.936 55.434M682.02 198.919 802.796 47.452M682.02 198.92l-185.376-15.896m185.376 15.896 10.099-239.034m0 0 17.508 124.919M692.118-40.115l-130.945-21.78m130.945 21.78L565.936 55.434m10.01 170.392-79.303-42.803m79.302 42.803L565.936 55.434m10.01 170.392L467.391 87.35m98.544-31.916-4.763-117.33m0 0-96.991 32.543m96.991-32.543L467.393 87.35m93.78-149.246L368.14-31.84m193.033-30.055 148.453 146.7m-212.983 98.22 69.293-127.59m-69.293 127.59-159.178-11.305M464.182-29.353l-96.042-2.488m96.042 2.488 101.754 84.787M337.465 171.719l-110.724 2.864m110.724-2.864L356.33 47.327m0 0 11.81-79.168m-11.81 79.168L265.059 65.01m91.27-17.682 107.853-76.68M356.33 47.327 235.929-70.394m132.21 38.553-103.08 96.85M226.74 174.583l-79.317 30.054m79.317-30.054L265.06 65.009m-29.13-135.404-92.123 38.003m92.123-38.002 29.13 135.403m-29.13-135.404 132.21 38.554M147.425 204.637l-1.666-143.301m0 0-1.952-93.728m1.952 93.728 119.3 3.673M19.457 178.991l2.856-112.404m-2.856 112.404 127.968 25.646M19.456 178.991 145.758 61.336M19.456 178.991 11.565-24.503m10.747 91.09-10.747-91.09m0 0 132.241-7.89" stroke="#2348e3" stroke-width="1.19" clip-path="url(#d)"/><ellipse cx="-1283.479" cy="-75.7" fill="#8b9ad9" transform="scale(-1)" rx="3.768" ry="4.174"/><ellipse cx="-948.21" cy="-94.868" fill="#8b9ad9" transform="scale(-1)" rx="3.768" ry="4.174"/><ellipse cx="-1039.962" cy="-46.997" fill="#8b9ad9" transform="scale(-1)" rx="3.768" ry="4.174"/><ellipse cx="-802.772" cy="-47.974" fill="#8b9ad9" transform="scale(-1)" rx="3.768" ry="4.174"/><ellipse cx="-681.995" cy="-199.441" fill="#8b9ad9" transform="scale(-1)" rx="3.768" ry="4.174"/><ellipse cx="-709.602" cy="-85.325" fill="#8b9ad9" transform="scale(-1)" rx="3.768" ry="4.174"/><ellipse cx="-575.921" cy="-226.348" fill="#8b9ad9" transform="scale(-1)" rx="3.768" ry="4.174"/><ellipse cx="-565.912" cy="-55.956" fill="#8b9ad9" transform="scale(-1)" rx="3.768" ry="4.174"/><ellipse cx="-496.619" cy="-183.545" fill="#8b9ad9" transform="scale(-1)" rx="3.768" ry="4.174"/><ellipse cx="-337.441" cy="-172.241" fill="#8b9ad9" transform="scale(-1)" rx="3.768" ry="4.174"/><ellipse cx="-466.946" cy="86.319" fill="#8b9ad9" transform="scale(-1 1)" rx="3.768" ry="4.174"/><ellipse cx="-356.306" cy="-47.849" fill="#8b9ad9" transform="scale(-1)" rx="3.768" ry="4.174"/><ellipse cx="-226.717" cy="-175.105" fill="#8b9ad9" transform="scale(-1)" rx="3.768" ry="4.174"/><ellipse cx="-265.035" cy="-65.531" fill="#8b9ad9" transform="scale(-1)" rx="3.768" ry="4.174"/><ellipse cx="-147.4" cy="-205.159" fill="#8b9ad9" transform="scale(-1)" rx="3.768" ry="4.174"/><ellipse cx="-145.734" cy="-61.858" fill="#8b9ad9" transform="scale(-1)" rx="3.768" ry="4.174"/><ellipse cx="-19.432" cy="-179.513" fill="#8b9ad9" transform="scale(-1)" rx="3.768" ry="4.174"/><ellipse cx="-22.288" cy="-67.109" fill="#8b9ad9" transform="scale(-1)" rx="3.768" ry="4.174"/><ellipse cx="-1215.576" cy="-74.875" fill="#6862cb" transform="scale(-1)" rx="3.768" ry="4.174"/><ellipse cx="-880.308" cy="-94.043" fill="#6862cb" transform="scale(-1)" rx="3.768" ry="4.174"/><ellipse cx="-972.06" cy="-46.173" fill="#6862cb" transform="scale(-1)" rx="3.768" ry="4.174"/><ellipse cx="-734.87" cy="-47.15" fill="#6862cb" transform="scale(-1)" rx="3.768" ry="4.174"/><ellipse cx="-614.092" cy="-198.616" fill="#6862cb" transform="scale(-1)" rx="3.768" ry="4.174"/><ellipse cx="-641.7" cy="-84.501" fill="#6862cb" transform="scale(-1)" rx="3.768" ry="4.174"/><ellipse cx="-508.019" cy="-225.524" fill="#6862cb" transform="scale(-1)" rx="3.768" ry="4.174"/><ellipse cx="-498.01" cy="-55.131" fill="#6862cb" transform="scale(-1)" rx="3.768" ry="4.174"/><ellipse cx="-428.716" cy="-182.721" fill="#6862cb" transform="scale(-1)" rx="3.768" ry="4.174"/><ellipse cx="-269.538" cy="-171.417" fill="#6862cb" transform="scale(-1)" rx="3.768" ry="4.174"/><ellipse cx="-399.044" cy="85.495" fill="#6862cb" transform="scale(-1 1)" rx="3.768" ry="4.174"/><ellipse cx="-288.403" cy="-47.025" fill="#6862cb" transform="scale(-1)" rx="3.768" ry="4.174"/><ellipse cx="-158.815" cy="-174.281" fill="#6862cb" transform="scale(-1)" rx="3.768" ry="4.174"/><ellipse cx="-197.132" cy="-64.707" fill="#6862cb" transform="scale(-1)" rx="3.768" ry="4.174"/><ellipse cx="-79.497" cy="-204.335" fill="#6862cb" transform="scale(-1)" rx="3.768" ry="4.174"/><ellipse cx="-77.831" cy="-61.034" fill="#6862cb" transform="scale(-1)" rx="3.768" ry="4.174"/><defs><mask id="f"><path fill="#fff" d="M0 0h1440v560H0Z"/></mask><mask maskUnits="userSpaceOnUse" id="a"><path fill="#fff" d="M0 560h1300.003V0H0Z" stroke-width=".95" transform="matrix(-1.10769 0 0 -1 0 560)"/></mask><mask maskUnits="userSpaceOnUse" id="b"><path fill="#fff" d="M0 560h1300.003V0H0Z" stroke-width=".95" transform="matrix(-1.10769 0 0 -1 0 560)"/></mask><clipPath clipPathUnits="userSpaceOnUse" id="d"><path fill="#ff0" stroke-width="4.17" d="M.004-.009h1300v300H.004z"/></clipPath><clipPath clipPathUnits="userSpaceOnUse" id="c"><path fill="#ff0" stroke-width="4.17" d="M.004-.009h1300v300H.004z"/></clipPath><radialGradient id="e"><stop stop-color="#fff" offset=".1"/><stop stop-color="#1735b3" offset=".2"/><stop stop-color="rgba(23, 53, 179, 0)" offset="1"/></radialGradient></defs></svg>